<svg width="300" height="41" viewBox="0 0 300 41" fill="none" xmlns="http://www.w3.org/2000/svg">
<path d="M224.896 27.752V33H214.784V27.752H216.128V22.504C216.128 21.8 215.979 21.288 215.68 20.968C215.381 20.6267 214.933 20.456 214.336 20.456C213.056 20.456 212.416 21.1387 212.416 22.504V27.752H213.76V33H203.712V27.752H205.056V22.504C205.056 21.8 204.907 21.288 204.608 20.968C204.309 20.6267 203.861 20.456 203.264 20.456C201.984 20.456 201.344 21.1387 201.344 22.504V27.752H202.688V33H192.576V27.752H193.984V20.456H192.576V15.208H201.344V17.704C202.88 15.7413 204.8 14.76 207.104 14.76C208.405 14.76 209.461 15.0693 210.272 15.688C211.104 16.2853 211.691 17.1387 212.032 18.248C212.8 17.1387 213.675 16.2853 214.656 15.688C215.659 15.0907 216.832 14.792 218.176 14.792C219.947 14.792 221.269 15.3467 222.144 16.456C223.04 17.5653 223.488 19.0907 223.488 21.032V27.752H224.896ZM244.576 27.752V33H236.128V30.824C235.658 31.5067 234.997 32.1147 234.144 32.648C233.312 33.1813 232.288 33.448 231.072 33.448C229.472 33.448 228.213 33.0213 227.296 32.168C226.378 31.3147 225.92 30.1093 225.92 28.552C225.92 24.52 229.344 22.4507 236.192 22.344C236.128 21.6187 235.85 21.128 235.36 20.872C234.869 20.5947 234.037 20.456 232.864 20.456C231.904 20.456 230.869 20.5627 229.76 20.776C228.672 20.968 227.669 21.2347 226.752 21.576V15.688C227.882 15.4107 229.109 15.1867 230.432 15.016C231.754 14.8453 233.045 14.76 234.304 14.76C237.482 14.76 239.754 15.336 241.12 16.488C242.485 17.64 243.168 19.4213 243.168 21.832V27.752H244.576ZM236.128 25.512C235.168 25.512 234.421 25.64 233.888 25.896C233.376 26.152 233.12 26.5787 233.12 27.176C233.12 27.5387 233.226 27.8373 233.44 28.072C233.674 28.2853 233.994 28.392 234.4 28.392C234.954 28.392 235.381 28.1573 235.68 27.688C235.978 27.2187 236.128 26.5573 236.128 25.704V25.512ZM247.143 13.448V8.104H253.671V13.448H247.143ZM245.607 33V27.752H247.015V20.456H245.607V15.208H254.375V27.752H255.783V33H245.607ZM264.446 33.448C261.758 33.448 259.166 33.0213 256.67 32.168V27.432H261.854V27.752C261.854 28.776 262.504 29.288 263.806 29.288C264.958 29.288 265.534 28.8933 265.534 28.104C265.534 27.6773 265.363 27.3573 265.022 27.144C264.702 26.9307 264.126 26.7493 263.294 26.6L261.694 26.312C258.344 25.7147 256.67 23.816 256.67 20.616C256.67 18.76 257.374 17.32 258.782 16.296C260.19 15.272 262.088 14.76 264.478 14.76C267.144 14.76 269.395 15.208 271.23 16.104V20.552H266.366V20.232C266.366 19.8053 266.216 19.4853 265.918 19.272C265.64 19.0373 265.224 18.92 264.67 18.92C263.603 18.92 263.07 19.2613 263.07 19.944C263.07 20.3067 263.219 20.584 263.518 20.776C263.816 20.968 264.36 21.1493 265.15 21.32L266.974 21.672C268.872 22.0347 270.227 22.7067 271.038 23.688C271.848 24.6693 272.254 25.928 272.254 27.464C272.254 29.4053 271.571 30.888 270.206 31.912C268.862 32.936 266.942 33.448 264.446 33.448Z" fill="#990000"/>
<path d="M154.824 27.752V33H144.712V27.752H146.056V22.504C146.056 21.8 145.907 21.288 145.608 20.968C145.309 20.6267 144.861 20.456 144.264 20.456C142.984 20.456 142.344 21.1387 142.344 22.504V27.752H143.688V33H133.576V27.752H134.984V13.352H133.576V8.104H142.344V17.704C143.133 16.7227 143.987 15.9867 144.904 15.496C145.821 15.0053 146.888 14.76 148.104 14.76C149.875 14.76 151.197 15.3147 152.072 16.424C152.968 17.5333 153.416 19.0587 153.416 21V27.752H154.824ZM174.513 27.752V33H166.065V30.824C165.596 31.5067 164.935 32.1147 164.081 32.648C163.249 33.1813 162.225 33.448 161.009 33.448C159.409 33.448 158.151 33.0213 157.233 32.168C156.316 31.3147 155.857 30.1093 155.857 28.552C155.857 24.52 159.281 22.4507 166.129 22.344C166.065 21.6187 165.788 21.128 165.297 20.872C164.807 20.5947 163.975 20.456 162.801 20.456C161.841 20.456 160.807 20.5627 159.697 20.776C158.609 20.968 157.607 21.2347 156.689 21.576V15.688C157.82 15.4107 159.047 15.1867 160.369 15.016C161.692 14.8453 162.983 14.76 164.241 14.76C167.42 14.76 169.692 15.336 171.057 16.488C172.423 17.64 173.105 19.4213 173.105 21.832V27.752H174.513ZM166.065 25.512C165.105 25.512 164.359 25.64 163.825 25.896C163.313 26.152 163.057 26.5787 163.057 27.176C163.057 27.5387 163.164 27.8373 163.377 28.072C163.612 28.2853 163.932 28.392 164.337 28.392C164.892 28.392 165.319 28.1573 165.617 27.688C165.916 27.2187 166.065 26.5573 166.065 25.704V25.512ZM162.577 13.288V12.808L166.065 7.944H172.913V8.808L167.697 13.288H162.577Z" fill="white"/>
<path d="M0.64 33V27.752H2.24V13.352H0.64V8.104H22.24V17.768H15.072V13.352H11.2V18.408H14.016V22.056H11.2V27.752H15.072V22.696H22.24V33H0.64ZM31.1645 33.448C28.4765 33.448 25.8845 33.0213 23.3885 32.168V27.432H28.5725V27.752C28.5725 28.776 29.2232 29.288 30.5245 29.288C31.6765 29.288 32.2525 28.8933 32.2525 28.104C32.2525 27.6773 32.0818 27.3573 31.7405 27.144C31.4205 26.9307 30.8445 26.7493 30.0125 26.6L28.4125 26.312C25.0632 25.7147 23.3885 23.816 23.3885 20.616C23.3885 18.76 24.0925 17.32 25.5005 16.296C26.9085 15.272 28.8072 14.76 31.1965 14.76C33.8632 14.76 36.1138 15.208 37.9485 16.104V20.552H33.0845V20.232C33.0845 19.8053 32.9352 19.4853 32.6365 19.272C32.3592 19.0373 31.9432 18.92 31.3885 18.92C30.3218 18.92 29.7885 19.2613 29.7885 19.944C29.7885 20.3067 29.9378 20.584 30.2365 20.776C30.5352 20.968 31.0792 21.1493 31.8685 21.32L33.6925 21.672C35.5912 22.0347 36.9458 22.7067 37.7565 23.688C38.5672 24.6693 38.9725 25.928 38.9725 27.464C38.9725 29.4053 38.2898 30.888 36.9245 31.912C35.5805 32.936 33.6605 33.448 31.1645 33.448ZM39.8543 34.856H41.2623V20.456H39.8543V15.208H48.6223V17.384C49.1556 16.7013 49.8383 16.0933 50.6703 15.56C51.5236 15.0267 52.4943 14.76 53.5823 14.76C55.7583 14.76 57.3903 15.5707 58.4783 17.192C59.5876 18.8133 60.1423 21.1173 60.1423 24.104C60.1423 27.0907 59.5876 29.3947 58.4783 31.016C57.3903 32.6373 55.7583 33.448 53.5823 33.448C52.4943 33.448 51.5236 33.1813 50.6703 32.648C49.8383 32.1147 49.1556 31.5067 48.6223 30.824V34.856H50.8303V40.104H39.8543V34.856ZM50.4783 27.752C51.0969 27.752 51.5556 27.592 51.8543 27.272C52.1743 26.9307 52.3343 26.408 52.3343 25.704V22.504C52.3343 21.8 52.1743 21.288 51.8543 20.968C51.5556 20.6267 51.0969 20.456 50.4783 20.456C49.8596 20.456 49.3903 20.6267 49.0703 20.968C48.7716 21.288 48.6223 21.8 48.6223 22.504V25.704C48.6223 26.408 48.7716 26.9307 49.0703 27.272C49.3903 27.592 49.8596 27.752 50.4783 27.752ZM79.7008 27.752V33H71.2528V30.824C70.7834 31.5067 70.1221 32.1147 69.2688 32.648C68.4368 33.1813 67.4128 33.448 66.1968 33.448C64.5968 33.448 63.3381 33.0213 62.4208 32.168C61.5034 31.3147 61.0448 30.1093 61.0448 28.552C61.0448 24.52 64.4688 22.4507 71.3168 22.344C71.2528 21.6187 70.9754 21.128 70.4848 20.872C69.9941 20.5947 69.1621 20.456 67.9888 20.456C67.0288 20.456 65.9941 20.5627 64.8848 20.776C63.7968 20.968 62.7941 21.2347 61.8768 21.576V15.688C63.0074 15.4107 64.2341 15.1867 65.5568 15.016C66.8794 14.8453 68.1701 14.76 69.4288 14.76C72.6074 14.76 74.8794 15.336 76.2448 16.488C77.6101 17.64 78.2928 19.4213 78.2928 21.832V27.752H79.7008ZM71.2528 25.512C70.2928 25.512 69.5461 25.64 69.0128 25.896C68.5008 26.152 68.2448 26.5787 68.2448 27.176C68.2448 27.5387 68.3514 27.8373 68.5648 28.072C68.7994 28.2853 69.1194 28.392 69.5248 28.392C70.0794 28.392 70.5061 28.1573 70.8048 27.688C71.1034 27.2187 71.2528 26.5573 71.2528 25.704V25.512ZM92.1243 23.08V22.504C92.1243 21.8 91.9749 21.288 91.6763 20.968C91.3776 20.6267 90.9083 20.456 90.2683 20.456C89.0309 20.456 88.4123 21.1387 88.4123 22.504V25.256C88.4123 26.92 89.3616 27.752 91.2603 27.752C93.0309 27.752 95.0896 27.56 97.4363 27.176V32.2C96.8176 32.456 96.0069 32.7013 95.0043 32.936C94.0016 33.1707 92.9349 33.32 91.8043 33.384V34.248C92.7643 34.248 93.5429 34.504 94.1403 35.016C94.7376 35.528 95.0363 36.2747 95.0363 37.256C95.0363 38.408 94.6309 39.2933 93.8203 39.912C93.0309 40.552 91.9323 40.872 90.5243 40.872C89.3083 40.872 87.9963 40.68 86.5883 40.296V38.024C87.8896 38.3227 89.0843 38.472 90.1723 38.472C90.5349 38.472 90.8016 38.376 90.9723 38.184C91.1643 37.992 91.2603 37.7467 91.2603 37.448C91.2603 37.1493 91.1643 36.904 90.9723 36.712C90.8016 36.52 90.5349 36.424 90.1723 36.424H88.7643V33.384C86.1829 33.128 84.1776 32.2213 82.7483 30.664C81.3189 29.0853 80.6043 26.8987 80.6043 24.104C80.6043 21.0533 81.4576 18.7387 83.1643 17.16C84.8709 15.56 87.2389 14.76 90.2683 14.76C91.7403 14.76 93.1483 14.9627 94.4923 15.368C95.8363 15.7733 96.8816 16.232 97.6283 16.744V23.08H92.1243ZM108.237 33.448C105.208 33.448 102.84 32.6587 101.133 31.08C99.4263 29.48 98.573 27.1547 98.573 24.104C98.573 21.0533 99.4263 18.7387 101.133 17.16C102.84 15.56 105.208 14.76 108.237 14.76C111.309 14.76 113.688 15.5707 115.373 17.192C117.058 18.792 117.901 21.096 117.901 24.104C117.901 27.1547 117.048 29.48 115.341 31.08C113.634 32.6587 111.266 33.448 108.237 33.448ZM108.237 27.752C108.856 27.752 109.314 27.592 109.613 27.272C109.933 26.9307 110.093 26.408 110.093 25.704V22.504C110.093 21.8 109.933 21.288 109.613 20.968C109.314 20.6267 108.856 20.456 108.237 20.456C107.618 20.456 107.149 20.6267 106.829 20.968C106.53 21.288 106.381 21.8 106.381 22.504V25.704C106.381 26.408 106.53 26.9307 106.829 27.272C107.149 27.592 107.618 27.752 108.237 27.752Z" fill="#2417B4"/>
</svg>
