<svg width="281" height="41" viewBox="0 0 281 41" fill="none" xmlns="http://www.w3.org/2000/svg">
<path d="M210.896 27.752V33H200.784V27.752H202.128V22.504C202.128 21.8 201.979 21.288 201.68 20.968C201.381 20.6267 200.933 20.456 200.336 20.456C199.056 20.456 198.416 21.1387 198.416 22.504V27.752H199.76V33H189.712V27.752H191.056V22.504C191.056 21.8 190.907 21.288 190.608 20.968C190.309 20.6267 189.861 20.456 189.264 20.456C187.984 20.456 187.344 21.1387 187.344 22.504V27.752H188.688V33H178.576V27.752H179.984V20.456H178.576V15.208H187.344V17.704C188.88 15.7413 190.8 14.76 193.104 14.76C194.405 14.76 195.461 15.0693 196.272 15.688C197.104 16.2853 197.691 17.1387 198.032 18.248C198.8 17.1387 199.675 16.2853 200.656 15.688C201.659 15.0907 202.832 14.792 204.176 14.792C205.947 14.792 207.269 15.3467 208.144 16.456C209.04 17.5653 209.488 19.0907 209.488 21.032V27.752H210.896ZM230.576 27.752V33H222.128V30.824C221.658 31.5067 220.997 32.1147 220.144 32.648C219.312 33.1813 218.288 33.448 217.072 33.448C215.472 33.448 214.213 33.0213 213.296 32.168C212.378 31.3147 211.92 30.1093 211.92 28.552C211.92 24.52 215.344 22.4507 222.192 22.344C222.128 21.6187 221.85 21.128 221.36 20.872C220.869 20.5947 220.037 20.456 218.864 20.456C217.904 20.456 216.869 20.5627 215.76 20.776C214.672 20.968 213.669 21.2347 212.752 21.576V15.688C213.882 15.4107 215.109 15.1867 216.432 15.016C217.754 14.8453 219.045 14.76 220.304 14.76C223.482 14.76 225.754 15.336 227.12 16.488C228.485 17.64 229.168 19.4213 229.168 21.832V27.752H230.576ZM222.128 25.512C221.168 25.512 220.421 25.64 219.888 25.896C219.376 26.152 219.12 26.5787 219.12 27.176C219.12 27.5387 219.226 27.8373 219.44 28.072C219.674 28.2853 219.994 28.392 220.4 28.392C220.954 28.392 221.381 28.1573 221.68 27.688C221.978 27.2187 222.128 26.5573 222.128 25.704V25.512ZM233.143 13.448V8.104H239.671V13.448H233.143ZM231.607 33V27.752H233.015V20.456H231.607V15.208H240.375V27.752H241.783V33H231.607ZM250.446 33.448C247.758 33.448 245.166 33.0213 242.67 32.168V27.432H247.854V27.752C247.854 28.776 248.504 29.288 249.806 29.288C250.958 29.288 251.534 28.8933 251.534 28.104C251.534 27.6773 251.363 27.3573 251.022 27.144C250.702 26.9307 250.126 26.7493 249.294 26.6L247.694 26.312C244.344 25.7147 242.67 23.816 242.67 20.616C242.67 18.76 243.374 17.32 244.782 16.296C246.19 15.272 248.088 14.76 250.478 14.76C253.144 14.76 255.395 15.208 257.23 16.104V20.552H252.366V20.232C252.366 19.8053 252.216 19.4853 251.918 19.272C251.64 19.0373 251.224 18.92 250.67 18.92C249.603 18.92 249.07 19.2613 249.07 19.944C249.07 20.3067 249.219 20.584 249.518 20.776C249.816 20.968 250.36 21.1493 251.15 21.32L252.974 21.672C254.872 22.0347 256.227 22.7067 257.038 23.688C257.848 24.6693 258.254 25.928 258.254 27.464C258.254 29.4053 257.571 30.888 256.206 31.912C254.862 32.936 252.942 33.448 250.446 33.448Z" fill="#990000"/>
<path d="M149.824 27.752V33H139.712V27.752H141.056V22.504C141.056 21.8 140.907 21.288 140.608 20.968C140.309 20.6267 139.861 20.456 139.264 20.456C137.984 20.456 137.344 21.1387 137.344 22.504V27.752H138.688V33H128.576V27.752H129.984V13.352H128.576V8.104H137.344V17.704C138.133 16.7227 138.987 15.9867 139.904 15.496C140.821 15.0053 141.888 14.76 143.104 14.76C144.875 14.76 146.197 15.3147 147.072 16.424C147.968 17.5333 148.416 19.0587 148.416 21V27.752H149.824ZM169.513 27.752V33H161.065V30.824C160.596 31.5067 159.935 32.1147 159.081 32.648C158.249 33.1813 157.225 33.448 156.009 33.448C154.409 33.448 153.151 33.0213 152.233 32.168C151.316 31.3147 150.857 30.1093 150.857 28.552C150.857 24.52 154.281 22.4507 161.129 22.344C161.065 21.6187 160.788 21.128 160.297 20.872C159.807 20.5947 158.975 20.456 157.801 20.456C156.841 20.456 155.807 20.5627 154.697 20.776C153.609 20.968 152.607 21.2347 151.689 21.576V15.688C152.82 15.4107 154.047 15.1867 155.369 15.016C156.692 14.8453 157.983 14.76 159.241 14.76C162.42 14.76 164.692 15.336 166.057 16.488C167.423 17.64 168.105 19.4213 168.105 21.832V27.752H169.513ZM161.065 25.512C160.105 25.512 159.359 25.64 158.825 25.896C158.313 26.152 158.057 26.5787 158.057 27.176C158.057 27.5387 158.164 27.8373 158.377 28.072C158.612 28.2853 158.932 28.392 159.337 28.392C159.892 28.392 160.319 28.1573 160.617 27.688C160.916 27.2187 161.065 26.5573 161.065 25.704V25.512ZM157.577 13.288V12.808L161.065 7.944H167.913V8.808L162.697 13.288H157.577Z" fill="#2B2A2A"/>
<path d="M0.64 33V27.752H2.24V13.352H0.64V8.104H22.24V17.768H15.072V13.352H11.2V18.408H14.016V22.056H11.2V27.752H15.072V22.696H22.24V33H0.64ZM31.1645 33.448C28.4765 33.448 25.8845 33.0213 23.3885 32.168V27.432H28.5725V27.752C28.5725 28.776 29.2232 29.288 30.5245 29.288C31.6765 29.288 32.2525 28.8933 32.2525 28.104C32.2525 27.6773 32.0818 27.3573 31.7405 27.144C31.4205 26.9307 30.8445 26.7493 30.0125 26.6L28.4125 26.312C25.0632 25.7147 23.3885 23.816 23.3885 20.616C23.3885 18.76 24.0925 17.32 25.5005 16.296C26.9085 15.272 28.8072 14.76 31.1965 14.76C33.8632 14.76 36.1138 15.208 37.9485 16.104V20.552H33.0845V20.232C33.0845 19.8053 32.9352 19.4853 32.6365 19.272C32.3592 19.0373 31.9432 18.92 31.3885 18.92C30.3218 18.92 29.7885 19.2613 29.7885 19.944C29.7885 20.3067 29.9378 20.584 30.2365 20.776C30.5352 20.968 31.0792 21.1493 31.8685 21.32L33.6925 21.672C35.5912 22.0347 36.9458 22.7067 37.7565 23.688C38.5672 24.6693 38.9725 25.928 38.9725 27.464C38.9725 29.4053 38.2898 30.888 36.9245 31.912C35.5805 32.936 33.6605 33.448 31.1645 33.448ZM39.8543 34.856H41.2623V20.456H39.8543V15.208H48.6223V17.384C49.1556 16.7013 49.8383 16.0933 50.6703 15.56C51.5236 15.0267 52.4943 14.76 53.5823 14.76C55.7583 14.76 57.3903 15.5707 58.4783 17.192C59.5876 18.8133 60.1423 21.1173 60.1423 24.104C60.1423 27.0907 59.5876 29.3947 58.4783 31.016C57.3903 32.6373 55.7583 33.448 53.5823 33.448C52.4943 33.448 51.5236 33.1813 50.6703 32.648C49.8383 32.1147 49.1556 31.5067 48.6223 30.824V34.856H50.8303V40.104H39.8543V34.856ZM50.4783 27.752C51.0969 27.752 51.5556 27.592 51.8543 27.272C52.1743 26.9307 52.3343 26.408 52.3343 25.704V22.504C52.3343 21.8 52.1743 21.288 51.8543 20.968C51.5556 20.6267 51.0969 20.456 50.4783 20.456C49.8596 20.456 49.3903 20.6267 49.0703 20.968C48.7716 21.288 48.6223 21.8 48.6223 22.504V25.704C48.6223 26.408 48.7716 26.9307 49.0703 27.272C49.3903 27.592 49.8596 27.752 50.4783 27.752ZM79.7008 27.752V33H71.2528V30.824C70.7834 31.5067 70.1221 32.1147 69.2688 32.648C68.4368 33.1813 67.4128 33.448 66.1968 33.448C64.5968 33.448 63.3381 33.0213 62.4208 32.168C61.5034 31.3147 61.0448 30.1093 61.0448 28.552C61.0448 24.52 64.4688 22.4507 71.3168 22.344C71.2528 21.6187 70.9754 21.128 70.4848 20.872C69.9941 20.5947 69.1621 20.456 67.9888 20.456C67.0288 20.456 65.9941 20.5627 64.8848 20.776C63.7968 20.968 62.7941 21.2347 61.8768 21.576V15.688C63.0074 15.4107 64.2341 15.1867 65.5568 15.016C66.8794 14.8453 68.1701 14.76 69.4288 14.76C72.6074 14.76 74.8794 15.336 76.2448 16.488C77.6101 17.64 78.2928 19.4213 78.2928 21.832V27.752H79.7008ZM71.2528 25.512C70.2928 25.512 69.5461 25.64 69.0128 25.896C68.5008 26.152 68.2448 26.5787 68.2448 27.176C68.2448 27.5387 68.3514 27.8373 68.5648 28.072C68.7994 28.2853 69.1194 28.392 69.5248 28.392C70.0794 28.392 70.5061 28.1573 70.8048 27.688C71.1034 27.2187 71.2528 26.5573 71.2528 25.704V25.512ZM92.1243 23.08V22.504C92.1243 21.8 91.9749 21.288 91.6763 20.968C91.3776 20.6267 90.9083 20.456 90.2683 20.456C89.0309 20.456 88.4123 21.1387 88.4123 22.504V25.256C88.4123 26.92 89.3616 27.752 91.2603 27.752C93.0309 27.752 95.0896 27.56 97.4363 27.176V32.2C96.8176 32.456 96.0069 32.7013 95.0043 32.936C94.0016 33.1707 92.9349 33.32 91.8043 33.384V34.248C92.7643 34.248 93.5429 34.504 94.1403 35.016C94.7376 35.528 95.0363 36.2747 95.0363 37.256C95.0363 38.408 94.6309 39.2933 93.8203 39.912C93.0309 40.552 91.9323 40.872 90.5243 40.872C89.3083 40.872 87.9963 40.68 86.5883 40.296V38.024C87.8896 38.3227 89.0843 38.472 90.1723 38.472C90.5349 38.472 90.8016 38.376 90.9723 38.184C91.1643 37.992 91.2603 37.7467 91.2603 37.448C91.2603 37.1493 91.1643 36.904 90.9723 36.712C90.8016 36.52 90.5349 36.424 90.1723 36.424H88.7643V33.384C86.1829 33.128 84.1776 32.2213 82.7483 30.664C81.3189 29.0853 80.6043 26.8987 80.6043 24.104C80.6043 21.0533 81.4576 18.7387 83.1643 17.16C84.8709 15.56 87.2389 14.76 90.2683 14.76C91.7403 14.76 93.1483 14.9627 94.4923 15.368C95.8363 15.7733 96.8816 16.232 97.6283 16.744V23.08H92.1243ZM108.237 33.448C105.208 33.448 102.84 32.6587 101.133 31.08C99.4263 29.48 98.573 27.1547 98.573 24.104C98.573 21.0533 99.4263 18.7387 101.133 17.16C102.84 15.56 105.208 14.76 108.237 14.76C111.309 14.76 113.688 15.5707 115.373 17.192C117.058 18.792 117.901 21.096 117.901 24.104C117.901 27.1547 117.048 29.48 115.341 31.08C113.634 32.6587 111.266 33.448 108.237 33.448ZM108.237 27.752C108.856 27.752 109.314 27.592 109.613 27.272C109.933 26.9307 110.093 26.408 110.093 25.704V22.504C110.093 21.8 109.933 21.288 109.613 20.968C109.314 20.6267 108.856 20.456 108.237 20.456C107.618 20.456 107.149 20.6267 106.829 20.968C106.53 21.288 106.381 21.8 106.381 22.504V25.704C106.381 26.408 106.53 26.9307 106.829 27.272C107.149 27.592 107.618 27.752 108.237 27.752Z" fill="#2417B4"/>
</svg>
